<svg width="95" height="95" viewBox="0 0 95 95" fill="none" xmlns="http://www.w3.org/2000/svg">
<g id="Frame">
<rect x="0.5" y="0.5" width="94" height="94" rx="47" fill="#E6EBFE"/>
<rect x="0.5" y="0.5" width="94" height="94" rx="47" stroke="#4B71FF"/>
<g id="Group">
<path id="Vector" d="M19 64.0801C19.3331 63.2926 19.9569 62.8061 20.6626 62.362C23.6283 60.4948 26.486 58.4875 28.8279 55.8344C30.9244 53.4603 32.1954 50.7444 32.2276 47.539C32.2553 44.7968 31.2692 42.4256 29.2808 40.5512C27.6796 39.042 25.9337 37.6848 24.2975 36.2122C23.1769 35.2026 22.1177 34.123 21.06 33.0448C20.6012 32.5773 20.461 31.9724 20.5983 31.3223C20.8583 30.0849 21.6984 29.6188 22.8584 30.1009C26.4334 31.5867 29.4284 33.9009 32.0975 36.6621C33.7747 38.3978 35.3234 40.2386 36.1444 42.5615C37.639 46.7852 37.135 50.8729 35.2065 54.8321C33.6593 58.0097 31.3159 60.5474 28.5635 62.6965C26.7431 64.1166 24.8161 65.4037 22.9008 66.6937C21.2849 67.7821 19.8415 67.2766 19.114 65.449C19.0891 65.3876 19.038 65.338 19 65.2824C19 64.8821 19 64.4818 19 64.0801Z" fill="#4B71FF"/>
<path id="Vector_2" d="M63.1813 76C62.4289 75.683 61.957 75.0927 61.5304 74.4178C59.7641 71.6273 57.894 68.9143 55.4382 66.6644C53.2511 64.66 50.7572 63.2589 47.7754 62.9083C44.5364 62.527 41.6934 63.4474 39.4508 65.8463C37.8116 67.6009 36.3273 69.5016 34.7246 71.2928C33.8641 72.2541 32.913 73.135 31.978 74.0262C31.4593 74.5215 30.7946 74.5741 30.1299 74.4207C29.0619 74.1752 28.5622 73.2943 29.0473 72.3096C29.8084 70.7639 30.5711 69.1977 31.5338 67.7777C33.6596 64.6468 36.2352 61.9177 39.4742 59.9075C42.0732 58.2945 44.9601 57.83 47.9755 58.1397C52.8055 58.6364 56.6303 61.047 59.9116 64.47C62.2316 66.8894 64.1236 69.6316 65.8709 72.4761C66.635 73.7209 66.1558 75.1249 64.8146 75.7575C64.6364 75.8422 64.4552 75.9182 64.2741 75.9985C63.9103 76 63.545 76 63.1813 76Z" fill="#4B71FF"/>
<path id="Vector_3" d="M46.4572 38.0149C43.1422 37.974 40.1604 36.9864 37.592 34.8563C34.1441 31.9987 31.288 28.6604 29.3405 24.5945C29.1988 24.2994 29.0702 23.9984 28.9533 23.6931C28.5516 22.6456 29.0717 21.7427 30.182 21.5455C30.8906 21.4198 31.4925 21.5951 32.0491 22.0729C33.8359 23.5996 35.2282 25.4769 36.7432 27.2476C37.7016 28.3667 38.6673 29.4946 39.7426 30.4968C42.6908 33.2434 46.1474 33.7182 49.8992 32.5378C52.618 31.6816 54.7715 29.9694 56.6854 27.9226C58.5861 25.8904 60.1143 23.585 61.5913 21.2401C62.5205 19.7645 64.3262 19.5848 65.5476 20.8135C66.2751 21.5455 66.5001 22.5418 65.9669 23.4155C63.3576 27.6961 60.5043 31.7824 56.3493 34.7482C53.3953 36.8564 50.0964 37.9623 46.4572 38.0149Z" fill="#4B71FF"/>
<path id="Vector_4" d="M57.0537 47.444C57.0698 44.2036 58.0326 41.2831 60.0896 38.7644C63.089 35.0915 66.626 32.0849 70.9957 30.1374C71.1608 30.0629 71.3303 29.9942 71.5027 29.9372C72.293 29.6713 72.9826 29.9489 73.2982 30.7159C73.64 31.5472 73.6357 32.4048 72.9651 33.0564C71.5319 34.4502 70.0519 35.7986 68.569 37.1398C67.3141 38.275 65.9641 39.3123 64.7632 40.5C61.9859 43.2481 61.2978 46.5791 62.2664 50.3002C63.067 53.3755 64.9385 55.7583 67.2235 57.8621C69.2148 59.6956 71.4442 61.2092 73.7496 62.6088C75.5174 63.6826 75.2208 65.7835 74.0374 66.7725C73.3405 67.3555 72.5136 67.5133 71.7481 67.0487C67.1285 64.2495 62.731 61.1814 59.7433 56.5239C57.9566 53.748 57.0581 50.642 57.0537 47.444Z" fill="#4B71FF"/>
</g>
</g>
</svg>
