<svg width="123" height="87" viewBox="0 0 123 87" fill="none" xmlns="http://www.w3.org/2000/svg">
<path id="&#226;&#128;&#156;" opacity="0.95" d="M70.2393 87L67.7923 83.1796C69.4236 76.9281 71.3462 70.2715 73.5602 63.2096C75.8906 56.1477 78.3959 49.0279 81.0759 41.8503C83.756 34.6727 86.6108 27.5529 89.6404 20.491C92.67 13.3134 95.6414 6.48303 98.5544 0H122.5C120.752 7.06188 119.004 14.4132 117.256 22.0539C115.625 29.6946 114.052 37.3353 112.537 44.9761C111.022 52.501 109.624 59.8523 108.342 67.0299C107.061 74.2076 105.954 80.8643 105.021 87H70.2393ZM2.94699 87L0.5 83.1796C2.13133 76.9281 4.05396 70.2715 6.26791 63.2096C8.59838 56.1477 11.1036 49.0279 13.7837 41.8503C16.4637 34.6727 19.3185 27.5529 22.3481 20.491C25.3777 13.3134 28.3491 6.48303 31.2622 0H55.2077C53.4599 7.06188 51.712 14.4132 49.9642 22.0539C48.3329 29.6946 46.7598 37.3353 45.245 44.9761C43.7302 52.501 42.3319 59.8523 41.0501 67.0299C39.7684 74.2076 38.6614 80.8643 37.7292 87H2.94699Z" fill="#FE9816"/>
</svg>
